# xmcd
#
# Track frame offsets:
#	150
#	25679
#	41277
#	65357
#	87459
#	110816
#	134910
#	158706
#	176176
#	199877
#
# Disc length: 2907 seconds
#
# Revision: 0
# Processed by: cddbd v1.5.1PL0 Copyright (c) Steve Scherf et al.
# Submitted via: dBpowerAMP V4.0
#
DISCID=8e0b590a
DTITLE=Nhu Quynh - Mot Doi Tim Nhau
DYEAR=1999
DGENRE=Country
TTITLE0=Hoa Tim Ngay Xua
TTITLE1=Mot MInh Thoi
TTITLE2=Chuyen Buon Tinh Yeu 
TTITLE3=Bao Gio Ta Gap Lai Ta
TTITLE4=Tinh Yeu Tra Lai Trang Sao
TTITLE5=Mot Doi Tim Nhau 
TTITLE6=Giot Sau Chua Voi
TTITLE7=Nhung Ngay Yeu Nhau
TTITLE8=Yeu La Chet Trong Long
TTITLE9=Cho Mot Ngay
EXTD=
EXTT0=
EXTT1=
EXTT2=
EXTT3=
EXTT4=
EXTT5=
EXTT6=
EXTT7=
EXTT8=
EXTT9=
PLAYORDER=
